# xmcd CD database file
#
# Track frame offsets:
#	150
#	20108
#	32140
#	40568
#	51217
#	65573
#	74760
#	85078
#	99334
#	113461
#	118905
#	140174
#	150722
#	164273
#	175152
#	188487
#	204127
#	210524
#
# Disc length: 2978 seconds
#
# Revision: 0
# Processed by: cddbd v1.5.1PL0 Copyright (c) Steve Scherf et al.
# Submitted via: CDex 1.51
#
DISCID=f50ba012
DTITLE=Mississippi John Hurt - D.C. Blues The Library Of Congress Recordings Vol. 1 [CD2]
DYEAR=2004
DGENRE=Blues
TTITLE0=Pallet On The Floor
TTITLE1=Waiting For A Train
TTITLE2=Funky Butt
TTITLE3=Spanish Flandang
TTITLE4=Monday Morning Blues
TTITLE5=Shortenin' Bread
TTITLE6=Oh Mary Don't You Weep
TTITLE7=Farther Along
TTITLE8=Do Lord Remember Me
TTITLE9=Over In The Glory Land
TTITLE10=Glory Glory Hallelujah
TTITLE11=What A Friend We Have In Jesus
TTITLE12=Where Shall I Be
TTITLE13=Weeping And Waiting
TTITLE14=Joe Turner
TTITLE15=If You Don't Want Me (Version #2)
TTITLE16=Rubber Dolly
TTITLE17=Keep Me Knockin' (You Can't Come In)
EXTD=YEAR: 2004
EXTT0=
EXTT1=
EXTT2=
EXTT3=
EXTT4=
EXTT5=
EXTT6=
EXTT7=
EXTT8=
EXTT9=
EXTT10=
EXTT11=
EXTT12=
EXTT13=
EXTT14=
EXTT15=
EXTT16=
EXTT17=
PLAYORDER=
